<svg xmlns="http://www.w3.org/2000/svg" id="Layer_1" data-name="Layer 1" viewBox="0 0 755.86 753.38"><defs><style>.cls-1{fill:#ff9f2c;}.cls-2{fill:#fff;}</style></defs><path class="cls-1" d="M518.17,147.77V163.6c69.2,45.7,115,124.13,115,213.09s-45.78,167.39-115,213.09v15.83c76.91-47.29,128.31-132.21,128.31-228.92s-51.4-181.63-128.31-228.92"/><path class="cls-1" d="M237.69,589.78c-69.2-45.7-115-124.13-115-213.09s45.78-167.39,115-213.09V147.77C160.79,195.06,109.38,280,109.38,376.69s51.41,181.63,128.31,228.92Z"/><rect class="cls-1" x="125.13" y="587.95" width="50.61" height="12.46" transform="translate(-368.99 268.79) rotate(-43.73)"/><polygon class="cls-1" points="130.69 529.14 136.79 537.4 128.43 575.41 152.01 558 159.42 568.02 118.71 598.1 112.56 589.77 121.64 551.22 97.34 569.18 89.98 559.21 130.69 529.14"/><polygon class="cls-1" points="80.67 518.37 116.19 500.57 121.74 511.65 86.22 529.45 93.56 544.1 83.84 548.97 63.6 508.59 73.33 503.71 80.67 518.37"/><polygon class="cls-1" points="95.94 445.19 107.87 482.78 59.63 498.08 47.77 460.71 57.99 457.47 66.08 482.96 75.15 480.08 67.73 456.68 77.38 453.62 84.8 477.02 93.87 474.14 85.72 448.43 95.94 445.19"/><path class="cls-1" d="M90.14,409.22l-15,17.62.52,3.59,17.19-2.53,1.81,12.33-50.06,7.36-3.72-25.33c-1.59-10.84,3.93-19,13.71-20.41,8.22-1.21,14.87,3,17.85,10.81L88,394.35ZM63.67,420.29c-.65-4.41-3.46-6.9-7.12-6.36s-5.56,3.71-4.91,8.12l1.71,11.66,12-1.77Z"/><polygon class="cls-1" points="89.17 346.17 88.85 358.56 68.83 358.06 68.3 379.36 88.32 379.86 88 392.32 37.39 391.05 37.7 378.59 57.42 379.08 57.96 357.78 38.24 357.29 38.55 344.9 89.17 346.17"/><path class="cls-1" d="M76,283.94c14.39,3.1,23.28,17.13,20.1,31.9s-17,23.92-31.43,20.83S41.2,319.5,44.38,304.74s17.1-23.91,31.58-20.8m-2.62,12.19c-8.49-1.83-16.09,2.95-17.82,11s3.23,15.53,11.73,17.35,15.93-3,17.66-11-3.15-15.51-11.57-17.32"/><path class="cls-1" d="M98.77,234.86c13.37,5.63,18.59,17.58,13.38,30-5.34,12.68-17.61,17.51-31,11.88L55.54,265.94l4.83-11.5L86,265.23c7.1,3,13.1,1,15.56-4.85,2.32-5.5-.52-11-7.62-14L68.31,235.57l4.83-11.49Z"/><path class="cls-1" d="M113.19,184.36,108.74,196A8.63,8.63,0,0,0,98,199.69c-2.23,3.51-1.73,6.95.69,8.49,1.73,1.1,3.49,1.14,5.76-1.17l7.61-7.62c6.35-6.35,13.12-8.13,19.89-3.85,9.12,5.79,8.7,16.89,2.67,26.4s-15.73,14.63-24.81,10.48l4.78-12.18c5.09,1.7,8.94-.15,11.65-4.42,2.51-4,2.22-7.45-.39-9.11-1.92-1.22-3.7-1.09-6.27,1.57L112,216c-5.29,5.23-11.88,8.56-19.66,3.63-8.3-5.26-9.1-15.43-2.74-25.45,5.91-9.32,14.8-13.17,23.59-9.82"/><polygon class="cls-1" points="173.93 170.4 147.88 199.99 109.89 166.55 135.8 137.13 143.85 144.22 126.18 164.29 133.32 170.57 149.54 152.15 157.14 158.84 140.92 177.26 148.06 183.55 165.88 163.31 173.93 170.4"/><rect class="cls-1" x="605.59" y="566.23" width="12.46" height="50.61" transform="translate(-237.73 641.51) rotate(-47.4)"/><polygon class="cls-1" points="671.15 556.19 665.18 564.55 626.45 568.33 650.28 585.37 643.03 595.51 601.87 566.07 607.89 557.65 647.36 554.4 622.79 536.83 629.99 526.75 671.15 556.19"/><polygon class="cls-1" points="653.33 503.78 689.03 521.18 683.61 532.32 647.9 514.91 640.73 529.64 630.95 524.87 650.74 484.28 660.51 489.05 653.33 503.78"/><polygon class="cls-1" points="711.41 459.34 699.7 497.01 651.36 481.97 663 444.52 673.25 447.71 665.3 473.25 674.39 476.08 681.69 452.63 691.36 455.64 684.06 479.09 693.15 481.92 701.17 456.16 711.41 459.34"/><path class="cls-1" d="M718.66,416.54l-19.38,12.6-.52,3.58,17.19,2.5-1.79,12.33-50.07-7.27L667.77,415c1.57-10.84,9.19-17.06,19-15.63,8.22,1.19,13.39,7.13,14,15.46l20.06-13.11Zm-28.52,3c.64-4.41-1.34-7.59-5-8.13s-6.39,2-7,6.39l-1.69,11.65,12,1.75Z"/><polygon class="cls-1" points="720.21 345.9 720.49 358.29 700.47 358.73 700.95 380.04 720.97 379.58 721.25 392.05 670.63 393.19 670.36 380.72 690.07 380.28 689.59 358.98 669.88 359.42 669.6 347.03 720.21 345.9"/><path class="cls-1" d="M683.69,286.13c14.42-3,28.2,6.31,31.24,21.1s-6,28.75-20.4,31.71-28.35-6.28-31.39-21.07,6.05-28.77,20.55-31.74m2.5,12.2c-8.5,1.75-13.53,9.18-11.88,17.25s9.21,12.91,17.72,11.16,13.38-9.15,11.73-17.21-9.13-12.93-17.57-11.2"/><path class="cls-1" d="M666.49,236.14c13.45-5.42,25.56-.61,30.58,11.86,5.14,12.74-.18,24.82-13.62,30.23l-25.78,10.38L653,277.06l25.78-10.39c7.15-2.87,10-8.5,7.64-14.39-2.23-5.53-8.14-7.46-15.28-4.59l-25.78,10.38-4.65-11.55Z"/><path class="cls-1" d="M628.68,200.42l8.49,9.16a8.63,8.63,0,0,0-1.48,11.24c2.16,3.55,5.47,4.63,7.93,3.14,1.74-1.06,2.56-2.62,1.49-5.68l-3.46-10.2c-2.87-8.5-1.48-15.36,5.37-19.53,9.23-5.61,19-.32,24.84,9.3s6.15,20.58-1.6,26.88l-8.8-9.67c3.78-3.81,3.84-8.09,1.2-12.41-2.43-4-5.69-5.29-8.34-3.68-1.94,1.17-2.61,2.82-1.37,6.32l3.56,10.21c2.35,7.06,2.42,14.45-5.46,19.24-8.39,5.1-17.86,1.31-24-8.83-5.73-9.42-5.25-19.09,1.65-25.49"/><polygon class="cls-1" points="627.88 141.11 653.22 171.34 614.42 203.87 589.23 173.81 597.45 166.92 614.63 187.42 621.93 181.3 606.15 162.48 613.91 155.98 629.69 174.79 636.99 168.68 619.65 148 627.88 141.11"/><path class="cls-1" d="M377.93,753.38c-207.7,0-376.69-169-376.69-376.69S170.23,0,377.93,0,754.62,169,754.62,376.69s-169,376.69-376.69,376.69m0-740.22c-200.45,0-363.52,163.08-363.52,363.53S177.48,740.21,377.93,740.21,741.46,577.14,741.46,376.69,578.38,13.16,377.93,13.16"/><path class="cls-1" d="M198.15,119.91a312.6,312.6,0,0,1,359.56,0h22a325.77,325.77,0,0,0-403.6,0Z"/><path class="cls-1" d="M557.71,633.46a312.6,312.6,0,0,1-359.56,0h-22a325.73,325.73,0,0,0,403.6,0Z"/><path class="cls-2" d="M482.05,316.59h32.17a3.94,3.94,0,0,0,3.95-3.94V280.47a4,4,0,0,0-3.95-4H241.65a4,4,0,0,0-4,4v32.18a3.94,3.94,0,0,0,4,3.94h32.16a4,4,0,0,1,3.95,4V513a4,4,0,0,1-3.95,3.95H241.65a4,4,0,0,0-4,4V553a4,4,0,0,0,4,4H514.22a4,4,0,0,0,3.95-4V520.88a4,4,0,0,0-3.95-4H482.05A4,4,0,0,1,478.1,513V320.54a4,4,0,0,1,3.95-4m-48,200.34H401.91A3.94,3.94,0,0,1,398,513V440.73a3.94,3.94,0,0,0-4-3.94H361.84a3.94,3.94,0,0,0-3.94,3.94V513a4,4,0,0,1-3.94,3.95H321.78a4,4,0,0,1-3.95-3.95V320.54a4,4,0,0,1,3.95-4H354a4,4,0,0,1,3.94,4v72.24a4,4,0,0,0,3.94,4H394a4,4,0,0,0,4-4V320.54a3.94,3.94,0,0,1,3.94-4h32.18a4,4,0,0,1,4,4V513a4,4,0,0,1-4,3.95"/><rect class="cls-2" x="237.69" y="196.39" width="280.47" height="40.07" rx="3.95"/></svg>